<?xml version="1.0" standalone="no"?>
<!DOCTYPE svg PUBLIC "-//W3C//DTD SVG 20010904//EN"
 "http://www.w3.org/TR/2001/REC-SVG-20010904/DTD/svg10.dtd">
<svg version="1.0" xmlns="http://www.w3.org/2000/svg"
 width="399.000000pt" height="401.000000pt" viewBox="0 0 399.000000 401.000000"
 preserveAspectRatio="xMidYMid meet">

<g transform="translate(0.000000,401.000000) scale(0.100000,-0.100000)"
 stroke="none">
<path d="M0 2005 l0 -2005 1995 0 1995 0 0 2005 0 2005 -1995 0 -1995 0 0
-2005z m1634 1129 c14 -6 16 -76 16 -698 l0 -691 307 308 306 307 173 0 c141
0 173 -3 177 -14 4 -10 -99 -117 -304 -317 -170 -167 -308 -308 -307 -313 2
-6 146 -190 321 -408 205 -256 317 -404 315 -415 -3 -16 -18 -18 -154 -21 -83
-1 -163 2 -176 7 -16 6 -118 130 -268 323 -134 172 -245 315 -247 317 -2 3
-35 -26 -73 -64 l-70 -69 0 -252 c0 -220 -2 -253 -16 -258 -30 -12 -249 -7
-262 6 -17 17 -17 2229 0 2246 13 13 232 18 262 6z"/>
</g>
</svg>
