<?xml version="1.0" standalone="no"?>
<!DOCTYPE svg PUBLIC "-//W3C//DTD SVG 20010904//EN"
 "http://www.w3.org/TR/2001/REC-SVG-20010904/DTD/svg10.dtd">
<svg version="1.0" xmlns="http://www.w3.org/2000/svg"
 width="130.000000pt" height="98.000000pt" viewBox="0 0 130.000000 98.000000"
 preserveAspectRatio="xMidYMid meet">

<g transform="translate(0.000000,98.000000) scale(0.100000,-0.100000)"
 stroke="none">
<path d="M21 906 c-9 -10 30 -104 177 -422 l188 -409 43 -3 c23 -2 48 1 55 7
7 6 45 83 86 171 40 88 76 160 80 160 4 0 42 -77 85 -170 l78 -170 52 0 51 0
188 410 c154 336 186 413 176 425 -8 10 -31 15 -66 15 -45 0 -56 -4 -68 -22
-8 -13 -74 -150 -147 -306 -72 -155 -134 -280 -137 -277 -3 3 -69 139 -147
303 l-141 297 -58 0 c-42 0 -62 -4 -68 -15 -7 -11 9 -55 57 -161 l67 -146 -64
-137 c-34 -75 -66 -135 -71 -133 -4 1 -69 130 -143 287 -75 157 -141 291 -146
298 -14 17 -112 16 -127 -2z"/>
<path d="M716 898 c-9 -12 -16 -30 -16 -40 0 -25 62 -149 73 -145 15 5 90 175
84 192 -5 11 -21 15 -66 15 -51 0 -62 -3 -75 -22z"/>
</g>
</svg>
